<?xml version="1.0" encoding="utf-8"?>
<svg version="1.1" width="512px" height="512px" style="shape-rendering:geometricPrecision; text-rendering:geometricPrecision; image-rendering:optimizeQuality; fill-rule:evenodd; clip-rule:evenodd" xmlns="http://www.w3.org/2000/svg">
  <g>
    <path style="opacity: 0.938; fill: rgba(129, 120, 23, 0.906);" d="M 165.5,-0.5 C 178.5,-0.5 191.5,-0.5 204.5,-0.5C 278.67,10.3326 330.17,50.3326 359,119.5C 363.266,131.566 366.433,143.899 368.5,156.5C 373.492,156.999 378.492,157.499 383.5,158C 388.789,159.224 392.955,162.058 396,166.5C 401.242,191.482 415.742,208.649 439.5,218C 456.617,224.224 474.283,227.89 492.5,229C 498.088,231.586 501.921,235.753 504,241.5C 507.362,254.143 509.862,266.809 511.5,279.5C 511.5,293.167 511.5,306.833 511.5,320.5C 498.252,411.476 448.252,472.309 361.5,503C 347.553,506.822 333.553,509.656 319.5,511.5C 306.167,511.5 292.833,511.5 279.5,511.5C 205.011,501.809 149.177,464.475 112,399.5C 103.198,382.233 96.3651,364.233 91.5,345.5C 38.4983,313.185 7.83165,266.185 -0.5,204.5C -0.5,191.5 -0.5,178.5 -0.5,165.5C 9.03543,97.908 44.0354,48.408 104.5,17C 124.105,8.18178 144.438,2.34844 165.5,-0.5 Z M 174.5,17.5 C 249.989,17.1352 304.489,50.4685 338,117.5C 342.971,128.215 346.137,139.215 347.5,150.5C 330.792,143.293 317.625,131.959 308,116.5C 303.809,108.922 299.809,101.256 296,93.5C 293.749,91.6227 291.249,90.1227 288.5,89C 229.704,91.8153 180.538,114.982 141,158.5C 101.287,205.139 83.4541,259.139 87.5,320.5C 36.1355,281.304 13.3022,229.304 19,164.5C 32.3072,88.1921 76.4739,40.3588 151.5,21C 159.304,19.7674 166.971,18.6008 174.5,17.5 Z M 129.5,70.5 C 139.302,71.1242 142.135,75.7909 138,84.5C 130.821,88.9946 125.987,87.1613 123.5,79C 124.174,75.1696 126.174,72.3362 129.5,70.5 Z M 280.5,106.5 C 285.94,116.811 292.107,126.811 299,136.5C 311.003,151.164 325.836,161.997 343.5,169C 355.304,172.793 367.304,175.626 379.5,177.5C 389.607,210.771 411.607,231.605 445.5,240C 458.618,243.541 471.951,245.874 485.5,247C 504.639,324.911 484.972,391.245 426.5,446C 372.363,490.429 311.363,503.429 243.5,485C 164.792,457.286 119.292,402.119 107,319.5C 102.392,236.207 135.558,173.04 206.5,130C 229.789,117.402 254.456,109.568 280.5,106.5 Z M 223.5,203.5 C 236.551,201.885 244.218,207.552 246.5,220.5C 244.364,232.231 237.364,237.731 225.5,237C 212.775,231.827 209.275,222.993 215,210.5C 217.441,207.546 220.275,205.213 223.5,203.5 Z M 412.5,264.5 C 423.794,264.961 430.127,270.794 431.5,282C 430.404,292.263 424.738,298.096 414.5,299.5C 399.448,295.955 394.615,286.955 400,272.5C 403.378,268.406 407.545,265.739 412.5,264.5 Z M 287.5,300.5 C 293.883,299.545 297.883,302.211 299.5,308.5C 297.891,314.957 293.891,317.457 287.5,316C 280.875,310.754 280.875,305.587 287.5,300.5 Z M 359.5,370.5 C 368.681,371.647 371.347,376.313 367.5,384.5C 363.373,388.434 359.207,388.434 355,384.5C 351.995,378.293 353.495,373.627 359.5,370.5 Z M 250.5,397.5 C 265.76,396.359 272.927,403.359 272,418.5C 267.057,430.593 258.557,434.093 246.5,429C 237.116,420.93 236.116,411.93 243.5,402C 245.898,400.476 248.231,398.976 250.5,397.5 Z"/>
  </g>
  <g>
    <path style="opacity: 0.939; fill: rgba(129, 120, 23, 0.906);" d="M 131.5,51.5 C 151.908,54.2908 160.741,65.9575 158,86.5C 152.082,101.88 140.916,108.047 124.5,105C 107.795,98.0882 101.961,85.9215 107,68.5C 112.069,58.249 120.236,52.5823 131.5,51.5 Z M 129.5,70.5 C 126.174,72.3362 124.174,75.1696 123.5,79C 125.987,87.1613 130.821,88.9946 138,84.5C 142.135,75.7909 139.302,71.1242 129.5,70.5 Z"/>
  </g>
  <g>
    <path style="opacity: 0.882; fill: rgba(129, 120, 23, 0.906);" d="M 200.5,60.5 C 209.528,61.0275 213.028,65.6941 211,74.5C 205.381,81.1541 199.714,81.1541 194,74.5C 192.189,67.7958 194.355,63.1291 200.5,60.5 Z"/>
  </g>
  <g>
    <path style="opacity: 0.882; fill: rgba(129, 120, 23, 0.906);" d="M 101.5,131.5 C 112.606,131.068 116.439,136.068 113,146.5C 106.914,151.811 101.58,151.145 97,144.5C 95.3794,138.923 96.8794,134.589 101.5,131.5 Z"/>
  </g>
  <g>
    <path style="opacity: 0.882; fill: rgba(129, 120, 23, 0.906);" d="M 48.5,140.5 C 58.6591,139.158 62.8257,143.491 61,153.5C 58.1034,158.155 53.9367,159.655 48.5,158C 43.8451,155.103 42.3451,150.937 44,145.5C 45.025,143.313 46.525,141.646 48.5,140.5 Z"/>
  </g>
  <g>
    <path style="opacity: 0.872; fill: rgba(129, 120, 23, 0.906);" d="M 75.5,184.5 C 86.57,184.224 90.2366,189.224 86.5,199.5C 82.1093,203.61 77.4427,204.11 72.5,201C 67.8532,194.374 68.8532,188.874 75.5,184.5 Z"/>
  </g>
  <g>
    <path style="opacity: 0.94; fill: rgba(129, 120, 23, 0.906);" d="M 222.5,184.5 C 243.819,183.017 257.652,192.35 264,212.5C 266.594,233.887 257.76,248.054 237.5,255C 214.971,258.328 200.471,249.161 194,227.5C 191.766,205.257 201.266,190.924 222.5,184.5 Z M 223.5,203.5 C 220.275,205.213 217.441,207.546 215,210.5C 209.275,222.993 212.775,231.827 225.5,237C 237.364,237.731 244.364,232.231 246.5,220.5C 244.218,207.552 236.551,201.885 223.5,203.5 Z"/>
  </g>
  <g>
    <path style="opacity: 0.866; fill: rgba(129, 120, 23, 0.906);" d="M 332.5,219.5 C 343.131,220.43 346.298,225.764 342,235.5C 335.015,240.241 329.682,238.907 326,231.5C 324.898,225.587 327.065,221.587 332.5,219.5 Z"/>
  </g>
  <g>
    <path style="opacity: 0.935; fill: rgba(129, 120, 23, 0.906);" d="M 406.5,246.5 C 427.645,244.141 441.812,252.808 449,272.5C 452.658,294.83 443.824,309.663 422.5,317C 393.487,318.984 378.987,305.484 379,276.5C 382.132,260.872 391.299,250.872 406.5,246.5 Z M 412.5,264.5 C 407.545,265.739 403.378,268.406 400,272.5C 394.615,286.955 399.448,295.955 414.5,299.5C 424.738,298.096 430.404,292.263 431.5,282C 430.127,270.794 423.794,264.961 412.5,264.5 Z"/>
  </g>
  <g>
    <path style="opacity: 0.936; fill: rgba(129, 120, 23, 0.906);" d="M 285.5,281.5 C 301.301,279.976 311.801,286.643 317,301.5C 319.758,319.17 312.591,330.336 295.5,335C 278.169,336.337 267.669,328.504 264,311.5C 263.692,295.996 270.859,285.996 285.5,281.5 Z M 287.5,300.5 C 280.875,305.587 280.875,310.754 287.5,316C 293.891,317.457 297.891,314.957 299.5,308.5C 297.883,302.211 293.883,299.545 287.5,300.5 Z"/>
  </g>
  <g>
    <path style="opacity: 0.882; fill: rgba(129, 120, 23, 0.906);" d="M 180.5,299.5 C 191.288,298.448 195.454,303.115 193,313.5C 187.593,318.765 182.26,318.765 177,313.5C 174.437,307.866 175.604,303.199 180.5,299.5 Z"/>
  </g>
  <g>
    <path style="opacity: 0.939; fill: rgba(129, 120, 23, 0.906);" d="M 354.5,352.5 C 376.818,350.989 387.985,361.323 388,383.5C 382.298,402.768 369.798,409.601 350.5,404C 334.318,394.113 330.484,380.613 339,363.5C 343.127,358.202 348.294,354.535 354.5,352.5 Z M 359.5,370.5 C 353.495,373.627 351.995,378.293 355,384.5C 359.207,388.434 363.373,388.434 367.5,384.5C 371.347,376.313 368.681,371.647 359.5,370.5 Z"/>
  </g>
  <g>
    <path style="opacity: 0.935; fill: rgba(129, 120, 23, 0.906);" d="M 250.5,378.5 C 274.789,378.459 288.456,390.459 291.5,414.5C 289.176,436.158 277.176,448.158 255.5,450.5C 228.72,446.602 217.22,431.269 221,404.5C 226.092,390.229 235.926,381.563 250.5,378.5 Z M 250.5,397.5 C 248.231,398.976 245.898,400.476 243.5,402C 236.116,411.93 237.116,420.93 246.5,429C 258.557,434.093 267.057,430.593 272,418.5C 272.927,403.359 265.76,396.359 250.5,397.5 Z"/>
  </g>
</svg>