<svg xmlns="http://www.w3.org/2000/svg" width="512" height="512" viewBox="0 0 512 512" version="1.1"><path d="" stroke="none" fill="#0063ff" fill-rule="evenodd"/><path d="M 22.500 27.392 C 13.547 30.209, 6.857 36.032, 2.845 44.500 L 0.002 50.500 0.001 211.572 C -0 392.582, -0.655 377.718, 7.734 387.050 C 10.237 389.833, 14.583 393.323, 17.392 394.805 L 22.500 397.500 64.254 397.791 L 106.008 398.083 108.504 395.587 C 111.849 392.242, 111.701 388.547, 108.077 384.923 L 105.154 382 65.725 382 C 26.474 382, 26.281 381.990, 22.952 379.747 C 18.160 376.517, 15.844 371.922, 15.244 364.454 L 14.726 358 256 358 L 497.274 358 496.756 364.454 C 496.156 371.922, 493.840 376.517, 489.048 379.747 L 485.704 382 311.302 382 C 160.194 382, 136.523 382.195, 134.072 383.463 C 129.270 385.946, 128.513 391.604, 132.455 395.545 L 134.909 398 159.455 398 C 178.693 398, 184 398.276, 184 399.276 C 184 400.570, 178.385 433.714, 177.501 437.633 C 177.059 439.595, 176.234 439.801, 167.260 440.193 C 156.047 440.682, 151.082 442.650, 146.238 448.527 C 137.065 459.656, 140.491 476.404, 153.347 483.279 L 157.500 485.500 256 485.500 L 354.500 485.500 358.653 483.279 C 371.509 476.404, 374.935 459.656, 365.762 448.527 C 360.918 442.650, 355.953 440.682, 344.740 440.193 C 335.773 439.801, 334.939 439.593, 334.481 437.633 C 333.671 434.169, 328.002 400.611, 328.001 399.273 C 328 398.316, 345.768 397.986, 408.750 397.773 L 489.500 397.500 494.608 394.805 C 500.755 391.562, 508.421 383.329, 510.055 378.215 C 510.707 376.172, 511.637 374.072, 512.121 373.550 C 513.116 372.475, 513.360 48.306, 512.365 49.302 C 512.016 49.651, 510.511 47.363, 509.021 44.218 C 505.934 37.701, 499.868 31.756, 493.122 28.637 C 488.611 26.551, 487.223 26.493, 435.344 26.217 L 382.189 25.934 379.428 28.309 C 375.943 31.306, 375.694 36.138, 378.860 39.306 C 381.050 41.496, 381.149 41.501, 433.777 42 L 486.500 42.500 489.765 44.829 C 491.561 46.110, 493.811 48.585, 494.765 50.329 C 496.385 53.291, 496.517 63.026, 496.763 197.750 L 497.027 342 256 342 L 14.973 342 15.237 197.750 C 15.483 63.026, 15.615 53.291, 17.235 50.329 C 18.189 48.585, 20.439 46.110, 22.235 44.829 L 25.500 42.500 189.338 42 L 353.177 41.500 355.088 39.139 C 357.750 35.853, 357.525 31.434, 354.545 28.455 L 352.091 26 189.295 26.067 C 61.409 26.119, 25.642 26.404, 22.500 27.392 M 0.488 212 C 0.488 301.375, 0.606 337.937, 0.750 293.250 C 0.894 248.562, 0.894 175.437, 0.750 130.750 C 0.606 86.062, 0.488 122.625, 0.488 212 M 46.455 82.455 C 42.641 86.268, 43.774 92.665, 48.657 94.890 C 50.383 95.676, 76.338 96, 137.624 96 L 224.154 96 227.077 93.077 C 228.685 91.469, 230 89.422, 230 88.527 C 230 86.056, 227.278 81.321, 225.455 80.621 C 224.565 80.280, 184.478 80, 136.373 80 L 48.909 80 46.455 82.455 M 415.861 81.911 L 413.500 83.822 413.224 136.244 C 412.951 188.176, 412.968 188.690, 415.047 191.333 L 417.145 194 440.500 194 L 463.855 194 465.953 191.333 C 468.032 188.690, 468.049 188.176, 467.776 136.244 L 467.500 83.822 465.139 81.911 C 462.973 80.157, 460.943 80, 440.500 80 C 420.057 80, 418.027 80.157, 415.861 81.911 M 429 137.500 L 429 179 440.500 179 L 452 179 452 137.500 L 452 96 440.500 96 L 429 96 429 137.500 M 273.736 101.250 C 270.319 103.845, 270 107.739, 270 146.916 C 270 186.882, 270.366 191.055, 274.039 193.021 C 275.076 193.576, 285.567 194, 298.260 194 C 320.372 194, 320.678 193.971, 322.826 191.686 C 324.988 189.384, 325 189.131, 325 146.860 L 325 104.349 322.686 102.174 C 320.451 100.075, 319.596 100, 297.877 100 C 281.426 100, 274.940 100.336, 273.736 101.250 M 286 147.500 L 286 179 297.500 179 L 309 179 309 147.500 L 309 116 297.500 116 L 286 116 286 147.500 M 46.455 122.455 C 43.346 125.563, 43.332 129.111, 46.413 132.694 L 48.826 135.500 101.663 135.795 C 130.723 135.957, 155.988 135.820, 157.806 135.489 C 164.753 134.227, 167.509 126.706, 162.686 122.174 L 160.371 120 104.640 120 L 48.909 120 46.455 122.455 M 186.174 122.314 C 183.434 125.231, 183.324 130.324, 185.944 132.944 C 188.732 135.732, 192.875 136.231, 209.994 135.844 L 225.176 135.500 227.680 132.587 C 229.624 130.325, 230.052 128.983, 229.589 126.587 C 228.408 120.460, 226.800 120, 206.564 120 C 188.817 120, 188.293 120.059, 186.174 122.314 M 346.364 122.170 C 342.314 124.131, 342 126.739, 342 158.412 C 342 187.570, 342.079 188.831, 344.073 191.365 L 346.145 194 369.500 194 L 392.855 194 394.927 191.365 C 396.923 188.828, 397 187.577, 397 157.788 L 397 126.846 394.077 123.923 L 391.154 121 369.827 121.068 C 357.330 121.107, 347.616 121.564, 346.364 122.170 M 358 158 L 358 179 369.500 179 L 381 179 381 158 L 381 137 369.500 137 L 358 137 358 158 M 46.455 167.455 C 43.346 170.563, 43.332 174.111, 46.413 177.694 L 48.827 180.500 137 180.500 L 225.173 180.500 227.679 177.587 C 230.635 174.150, 230.302 169.586, 226.886 166.750 C 224.914 165.113, 219.121 165, 136.844 165 L 48.909 165 46.455 167.455 M 46.073 207.635 C 43.443 210.978, 43.443 214.022, 46.073 217.365 L 48.145 220 66.898 220 C 85.208 220, 85.703 219.945, 87.826 217.686 C 90.714 214.611, 90.652 209.961, 87.686 207.174 C 85.480 205.103, 84.492 205, 66.758 205 L 48.145 205 46.073 207.635 M 111.174 207.314 C 108.286 210.389, 108.348 215.039, 111.314 217.826 L 113.629 220 169.204 220 C 230.994 220, 228.260 220.303, 229.609 213.316 C 230.105 210.748, 229.727 209.636, 227.657 207.566 L 225.091 205 169.220 205 L 113.349 205 111.174 207.314 M 400.656 218.253 C 399.416 219.493, 390.597 235.938, 381.058 254.799 L 363.713 289.092 348.798 259.796 C 340.594 243.683, 332.959 229.713, 331.830 228.750 C 329.520 226.779, 325.827 226.487, 322.918 228.044 C 321.844 228.619, 317.150 236.713, 312.478 246.044 L 303.989 263 289.929 263 C 282.196 263, 275.045 263.441, 274.039 263.979 C 269.718 266.292, 270.019 275.642, 274.471 277.350 C 275.402 277.708, 284.127 278, 293.859 278 C 307.365 278, 312.022 277.671, 313.527 276.608 C 314.612 275.843, 317.959 270.218, 320.964 264.108 C 323.969 257.999, 326.669 253.001, 326.964 253.002 C 327.259 253.003, 333.979 265.716, 341.898 281.252 C 349.817 296.789, 357.208 310.512, 358.322 311.750 C 360.833 314.538, 366.236 314.764, 368.811 312.189 C 369.806 311.194, 378.419 294.966, 387.950 276.129 C 397.480 257.291, 405.615 242.243, 406.026 242.689 C 406.437 243.135, 410.490 250.700, 415.031 259.500 C 419.573 268.300, 423.985 276.063, 424.835 276.750 C 425.950 277.650, 431.621 278, 445.119 278 L 463.855 278 465.927 275.365 C 468.677 271.870, 468.545 268.454, 465.545 265.455 C 463.171 263.080, 462.627 262.999, 448.795 262.980 L 434.500 262.960 423.500 241.303 C 417.450 229.391, 411.628 218.825, 410.561 217.823 C 407.902 215.322, 403.391 215.518, 400.656 218.253 M 46.455 246.455 C 42.459 250.450, 43.469 256.059, 48.684 258.837 C 50.297 259.695, 73.558 260, 137.511 260 L 224.154 260 227.077 257.077 C 228.685 255.469, 230 253.422, 230 252.527 C 230 250.056, 227.278 245.321, 225.455 244.621 C 224.565 244.280, 184.478 244, 136.373 244 L 48.909 244 46.455 246.455 M 46.073 286.635 C 43.443 289.978, 43.443 293.022, 46.073 296.365 L 48.145 299 91.462 299 C 131.246 299, 134.950 298.857, 136.886 297.250 C 140.102 294.580, 140.588 290.017, 138.006 286.734 L 135.855 284 92 284 L 48.145 284 46.073 286.635 M 197.058 417.750 C 195.206 428.613, 193.488 438.063, 193.239 438.750 C 192.882 439.735, 200.423 440, 228.846 440 C 253.144 440, 265.701 440.362, 267.343 441.110 C 269.795 442.228, 272 445.785, 272 448.624 C 272 449.465, 270.685 451.469, 269.077 453.077 L 266.154 456 213.577 456 C 162.333 456, 160.949 456.051, 159 458 C 157.889 459.111, 157 461.333, 157 463 C 157 464.667, 157.889 466.889, 159 468 C 160.972 469.972, 162.333 470, 256 470 C 349.667 470, 351.028 469.972, 353 468 C 355.334 465.666, 355.605 461.211, 353.582 458.441 C 352.252 456.619, 350.405 456.469, 323.492 456 C 294.842 455.500, 294.818 455.498, 292.910 453.139 C 290.250 449.852, 290.475 445.434, 293.455 442.455 C 295.780 440.129, 296.523 440, 307.562 440 C 316.458 440, 319.107 439.704, 318.761 438.750 C 318.512 438.063, 316.794 428.613, 314.942 417.750 L 311.576 398 256 398 L 200.424 398 197.058 417.750" stroke="none" fill="#0063ff" fill-rule="evenodd"/></svg>