<?xml version="1.0" standalone="no"?>
<!DOCTYPE svg PUBLIC "-//W3C//DTD SVG 20010904//EN"
 "http://www.w3.org/TR/2001/REC-SVG-20010904/DTD/svg10.dtd">
<svg version="1.0" xmlns="http://www.w3.org/2000/svg"
 width="512.000000pt" height="512.000000pt" viewBox="0 0 512.000000 512.000000"
 preserveAspectRatio="xMidYMid meet">

<g transform="translate(0.000000,512.000000) scale(0.100000,-0.100000)"
fill="#ffff" stroke="none">
<path d="M2255 5105 c-462 -72 -837 -385 -983 -820 -57 -168 -62 -224 -62
-721 l0 -452 -117 -4 c-102 -3 -126 -7 -175 -30 -109 -51 -181 -148 -199 -270
-11 -82 -11 -2424 0 -2505 18 -120 92 -221 199 -271 l57 -27 1585 0 1585 0 57
27 c107 50 181 151 199 271 11 81 11 2423 0 2505 -18 122 -90 219 -199 270
-49 23 -73 27 -174 30 l-118 4 0 452 c0 497 -5 553 -62 721 -147 438 -522 749
-988 820 -118 18 -490 18 -605 0z m660 -314 c323 -87 568 -326 667 -653 21
-70 22 -91 26 -550 l3 -478 -1051 0 -1051 0 3 478 c4 459 5 480 26 550 80 262
247 464 482 582 172 86 256 100 570 96 214 -3 255 -6 325 -25z m1179 -2003
c14 -20 16 -154 16 -1233 0 -1079 -2 -1213 -16 -1233 -15 -22 -18 -22 -265
-22 l-249 0 0 673 0 673 51 23 c169 77 278 285 249 475 -35 228 -221 387 -450
387 -234 0 -415 -159 -450 -396 -27 -179 73 -373 236 -457 l64 -33 0 -672 0
-673 -285 0 -285 0 0 643 c0 591 -1 645 -18 677 -12 25 -69 75 -192 168 -96
73 -181 136 -189 141 -10 6 -11 22 -4 77 29 236 -91 429 -321 511 -24 8 -77
14 -126 14 -407 0 -609 -482 -324 -773 140 -142 351 -176 532 -84 l48 24 147
-109 147 -109 0 -590 0 -590 -280 0 -280 0 0 130 0 129 57 28 c221 108 311
393 195 619 -58 113 -193 211 -327 235 -246 45 -487 -132 -526 -386 -29 -184
77 -388 244 -469 l57 -28 0 -129 0 -129 -254 0 c-252 0 -255 0 -270 22 -14 20
-16 154 -16 1233 0 1079 2 1213 16 1233 l15 22 1519 0 1519 0 15 -22z m-2159
-577 c72 -41 98 -146 55 -217 -28 -45 -99 -78 -152 -71 -107 14 -168 129 -119
225 43 84 132 110 216 63z m1582 -3 c34 -20 73 -89 73 -129 -1 -39 -35 -104
-69 -128 -44 -31 -93 -37 -146 -17 -109 42 -135 174 -51 255 54 52 126 60 193
19z m-1743 -1081 c141 -79 85 -287 -77 -287 -130 0 -199 144 -120 248 48 63
128 79 197 39z"/>
</g>
</svg>
