<?xml version="1.0" encoding="utf-8"?>
<svg version="1.1" width="512px" height="512px" style="shape-rendering:geometricPrecision; text-rendering:geometricPrecision; image-rendering:optimizeQuality; fill-rule:evenodd; clip-rule:evenodd" xmlns="http://www.w3.org/2000/svg">
  <g>
    <path style="opacity: 0.988; fill: rgba(206, 201, 148, 0.906);" d="M 95.5,-0.5 C 101.833,-0.5 108.167,-0.5 114.5,-0.5C 120.203,3.71214 124.703,9.04547 128,15.5C 145.071,47.9847 163.404,79.6513 183,110.5C 187.359,117.889 187.359,125.222 183,132.5C 180.667,135.5 178.333,138.5 176,141.5C 163.753,153.085 150.92,163.918 137.5,174C 130.873,179.62 125.373,186.12 121,193.5C 120.619,201.427 122.619,208.76 127,215.5C 145.315,249.136 167.315,280.136 193,308.5C 226.388,341.61 264.221,368.443 306.5,389C 313.726,391.826 320.059,390.492 325.5,385C 336.789,374.051 346.956,362.217 356,349.5C 362.538,341.294 370.038,334.128 378.5,328C 385.778,323.641 393.111,323.641 400.5,328C 431.349,347.596 463.015,365.929 495.5,383C 501.955,386.297 507.288,390.797 511.5,396.5C 511.5,402.833 511.5,409.167 511.5,415.5C 508.784,429.349 504.951,443.016 500,456.5C 492.453,468.381 482.62,477.881 470.5,485C 450.074,498.86 427.741,507.693 403.5,511.5C 392.833,511.5 382.167,511.5 371.5,511.5C 329.893,501.383 289.559,487.216 250.5,469C 212.111,447.631 177.111,421.631 145.5,391C 109.433,357.294 78.2662,319.794 52,278.5C 41.0593,259.283 31.726,239.283 24,218.5C 19.3333,205.833 14.6667,193.167 10,180.5C 5.68508,166.904 2.18508,153.237 -0.5,139.5C -0.5,128.833 -0.5,118.167 -0.5,107.5C 5.49098,72.0178 21.1576,41.5178 46.5,16C 55.382,10.2572 65.0487,6.25725 75.5,4C 82.3118,2.54087 88.9785,1.04087 95.5,-0.5 Z"/>
  </g>
</svg>