<?xml version="1.0" standalone="no"?>
<!DOCTYPE svg PUBLIC "-//W3C//DTD SVG 20010904//EN"
 "http://www.w3.org/TR/2001/REC-SVG-20010904/DTD/svg10.dtd">
<svg version="1.0" xmlns="http://www.w3.org/2000/svg"
 width="512.000000pt" height="512.000000pt" viewBox="0 0 512.000000 512.000000"
 preserveAspectRatio="xMidYMid meet">

<g transform="translate(0.000000,512.000000) scale(0.100000,-0.100000)"
fill="#ffff" stroke="none">
<path d="M2393 4705 c-95 -17 -163 -40 -255 -85 -113 -56 -163 -93 -263 -195
-127 -129 -207 -273 -252 -451 -24 -95 -24 -333 0 -428 71 -284 255 -515 512
-644 354 -177 779 -118 1070 150 295 272 393 689 249 1057 -74 186 -236 377
-402 474 -201 118 -440 162 -659 122z m372 -255 c125 -39 202 -86 300 -185
100 -99 146 -175 186 -305 34 -108 34 -292 0 -400 -40 -130 -86 -206 -186
-305 -99 -100 -175 -146 -305 -186 -108 -34 -292 -34 -400 0 -130 40 -206 86
-305 186 -100 99 -146 175 -186 305 -34 108 -34 292 0 400 40 130 86 206 186
305 115 116 230 177 383 205 78 15 248 4 327 -20z"/>
<path d="M1865 2549 c-490 -65 -918 -418 -1075 -887 -61 -184 -65 -222 -65
-622 l0 -365 27 -57 c37 -79 98 -142 177 -181 l66 -32 773 -3 c679 -2 777 -1
805 13 62 29 85 106 50 166 -36 61 -10 59 -823 59 -826 0 -792 -3 -825 66 -15
32 -16 73 -12 367 3 255 8 347 20 397 110 458 462 780 921 840 53 7 299 10
706 8 619 -3 626 -3 721 -27 110 -27 139 -24 181 21 23 25 28 39 28 80 0 41
-5 54 -28 78 -16 16 -49 34 -73 40 -164 45 -144 43 -839 46 -366 1 -696 -2
-735 -7z"/>
<path d="M3433 2145 c-95 -17 -163 -40 -255 -85 -113 -56 -163 -93 -263 -195
-127 -129 -207 -273 -252 -451 -24 -95 -24 -333 0 -428 95 -381 396 -665 776
-731 205 -36 441 2 616 101 75 42 95 68 95 128 0 61 -37 105 -97 113 -35 5
-53 0 -110 -30 -122 -63 -201 -82 -343 -82 -103 0 -138 4 -200 24 -130 40
-206 86 -305 186 -100 99 -146 175 -186 305 -34 108 -34 292 0 400 40 130 86
206 186 305 99 100 175 146 305 186 62 20 97 24 200 24 142 0 222 -19 345 -83
96 -50 237 -191 287 -287 64 -123 83 -203 83 -345 -1 -143 -13 -195 -77 -329
-33 -70 -39 -92 -35 -125 8 -59 52 -96 113 -96 65 0 93 24 141 122 122 248
135 526 37 777 -74 186 -236 377 -402 474 -201 118 -440 162 -659 122z"/>
<path d="M3555 1591 c-11 -5 -31 -21 -45 -36 -23 -24 -25 -36 -28 -130 l-4
-103 -104 -4 c-102 -3 -104 -4 -136 -36 -28 -28 -33 -39 -33 -82 0 -43 5 -54
33 -82 32 -32 34 -33 136 -36 l104 -4 4 -104 c3 -102 4 -104 36 -136 28 -28
39 -33 82 -33 43 0 54 5 82 33 32 32 33 34 36 136 l4 104 104 4 c102 3 104 4
136 36 28 28 33 39 33 82 0 43 -5 54 -33 82 -32 32 -34 33 -136 36 l-104 4 -4
104 c-3 101 -4 105 -34 135 -33 33 -92 46 -129 30z"/>
</g>
</svg>
