<?xml version="1.0" encoding="UTF-8"?>
<svg version="1.1" xmlns="http://www.w3.org/2000/svg" width="512" height="512">
<path d="M0 0 C12.40941229 10.58516112 14.24544127 25.30534968 15.99682617 40.6628418 C16.15427064 41.99356445 16.31236637 43.32421018 16.47105408 44.65478516 C16.89584825 48.23535434 17.31056215 51.81701886 17.72254729 55.39908195 C18.07016171 58.41486365 18.42232864 61.4301077 18.77429277 64.44538432 C19.60700418 71.58162488 20.43095856 78.71884019 21.24975586 85.85668945 C22.08663498 93.15052805 22.93981494 100.44232895 23.80099887 107.73333424 C24.54603367 114.04695429 25.27970131 120.36183152 26.00498372 126.67775089 C26.43551827 130.42556642 26.87006767 134.17278828 27.31606102 137.91879845 C34.39885322 197.56094071 34.39885322 197.56094071 16.62890625 220.26953125 C7.49075154 231.50879453 -3.34262786 241.07078971 -14.125 250.6875 C-33.30199319 267.75235501 -33.30199319 267.75235501 -42.8125 290.9375 C-42.91944287 294.20995179 -42.90673625 297.47628372 -42.875 300.75 C-42.86823242 302.07547852 -42.86823242 302.07547852 -42.86132812 303.42773438 C-42.84959866 305.59768559 -42.83166495 307.76760172 -42.8125 309.9375 C-42.27778076 310.1243335 -41.74306152 310.31116699 -41.19213867 310.50366211 C-32.25826955 313.7197738 -27.88106269 317.83021462 -23.7578125 326.47265625 C-21.84577316 331.45818031 -21.65302965 336.29121656 -21.64453125 341.58203125 C-21.64120285 342.31064865 -21.63787445 343.03926605 -21.63444519 343.78996277 C-21.62939903 345.32717257 -21.62703615 346.86439325 -21.62719727 348.40161133 C-21.62501673 350.73212106 -21.60685319 353.06215235 -21.58789062 355.39257812 C-21.58495487 356.89322757 -21.58297129 358.39387923 -21.58203125 359.89453125 C-21.57484573 360.58126419 -21.56766022 361.26799713 -21.56025696 361.97554016 C-21.59898711 370.33383682 -23.51931745 378.38800804 -29.3828125 384.6015625 C-37.08794337 391.61565025 -43.98271391 392.38329632 -54.10668945 392.35742188 C-55.33035217 392.36589142 -56.55401489 392.37436096 -57.8147583 392.38308716 C-61.15599836 392.40242102 -64.49667875 392.40823821 -67.83793664 392.40633965 C-70.6358469 392.40621951 -73.43370559 392.41480127 -76.23160142 392.42311716 C-82.83827419 392.44232089 -89.44482064 392.44524656 -96.05151367 392.43847656 C-102.84597205 392.43184166 -109.63988675 392.45468428 -116.43423492 392.49179029 C-122.28589557 392.52257744 -128.13738216 392.53383751 -133.98912209 392.52995348 C-137.47600622 392.5278948 -140.96246731 392.53322675 -144.44927406 392.55784607 C-148.34310461 392.58443316 -152.23623406 392.57031669 -156.13012695 392.55273438 C-157.27072067 392.56599762 -158.41131439 392.57926086 -159.58647156 392.59292603 C-167.74601212 392.50762825 -174.57738567 390.82301934 -180.72585011 385.18209076 C-187.00061885 378.51440176 -188.27492427 371.76092919 -188.24609375 362.91015625 C-188.2513356 361.96240829 -188.25657745 361.01466034 -188.26197815 360.03819275 C-188.26837574 358.0421547 -188.26709081 356.04607884 -188.25854492 354.05004883 C-188.250035 351.01249428 -188.27882821 347.97682232 -188.31054688 344.93945312 C-188.31215924 342.99218806 -188.31158068 341.04491969 -188.30859375 339.09765625 C-188.31982773 338.19845963 -188.33106171 337.299263 -188.34263611 336.37281799 C-188.25306965 328.18361662 -185.46068846 321.91793485 -179.8125 315.9375 C-175.94235264 312.99282266 -172.41957974 311.39405585 -167.8125 309.9375 C-167.80663376 308.956035 -167.80076752 307.97457001 -167.79472351 306.96336365 C-167.73717311 297.65256207 -167.66424717 288.34198685 -167.57678509 279.03141689 C-167.53231462 274.24630397 -167.4930091 269.46127164 -167.46606445 264.67602539 C-167.43979625 260.04631368 -167.3992335 255.41691611 -167.34931374 250.7874012 C-167.33280227 249.03308117 -167.32119126 247.278707 -167.31488609 245.5243206 C-167.17072386 209.05324914 -150.73668906 183.47810402 -125.8125 157.9375 C-125.28865723 157.40034363 -124.76481445 156.86318726 -124.22509766 156.30975342 C-120.48226188 152.47582509 -116.72466538 148.65690995 -112.95425415 144.85009766 C-111.66285811 143.54492796 -110.37372977 142.23751016 -109.08700562 140.92773438 C-88.79284887 120.30007697 -88.79284887 120.30007697 -73.18237305 119.82763672 C-71.95043213 119.84068848 -70.71849121 119.85374023 -69.44921875 119.8671875 C-67.57882935 119.88241455 -67.57882935 119.88241455 -65.6706543 119.89794922 C-64.72746338 119.91100098 -63.78427246 119.92405273 -62.8125 119.9375 C-62.76682892 118.8218718 -62.72115784 117.70624359 -62.67410278 116.55680847 C-62.24126889 106.00841266 -61.80030545 95.4603834 -61.35151863 84.91265392 C-61.12108816 79.49083743 -60.89345618 74.06893444 -60.67236328 68.64672852 C-60.45862273 63.40742412 -60.23734362 58.16848606 -60.01098251 52.9297123 C-59.92620927 50.93770754 -59.84408641 48.94558805 -59.7647438 46.9533596 C-58.46039786 14.33884523 -58.46039786 14.33884523 -47.60546875 2.53515625 C-33.96564687 -9.61884625 -14.9853849 -10.58390512 0 0 Z M-33.5625 19.625 C-37.99242714 25.38373257 -38.13975115 32.89686583 -38.40673828 39.88525391 C-38.44604462 40.74175537 -38.48535095 41.59825684 -38.52584839 42.48071289 C-38.65278805 45.29154215 -38.76799689 48.10271403 -38.8828125 50.9140625 C-38.96900535 52.88693964 -39.05583868 54.85978889 -39.14328003 56.83261108 C-39.32466518 60.96291628 -39.50065617 65.09340241 -39.67236328 69.22412109 C-39.89104476 74.48261013 -40.11945624 79.74061564 -40.35151863 84.99852943 C-40.53090075 89.07368794 -40.70686029 93.14898827 -40.88164902 97.22434616 C-40.96476333 99.16098016 -41.04848096 101.09758837 -41.13284683 103.03416824 C-41.39085134 109.00105994 -41.62289828 114.96803113 -41.8125 120.9375 C-41.84847919 122.00629017 -41.84847919 122.00629017 -41.88518524 123.09667206 C-41.94394947 125.0254651 -41.98025508 126.95490463 -42.01513672 128.88427734 C-42.03615448 129.93094574 -42.05717224 130.97761414 -42.0788269 132.05599976 C-41.69627833 136.19494999 -40.11769476 139.32255945 -38.00390625 142.8515625 C-34.01213559 149.8404331 -34.97272766 160.36981938 -36.390625 168.08203125 C-39.89355177 179.21178493 -49.88618701 187.16492472 -57.93359375 195.19140625 C-58.75956558 196.01833481 -59.58553741 196.84526337 -60.4365387 197.69725037 C-62.1621132 199.42349918 -63.88892621 201.1485108 -65.61694336 202.87231445 C-68.27119463 205.5211514 -70.91999109 208.17536059 -73.56835938 210.83007812 C-75.25228314 212.51334205 -76.93651656 214.19629626 -78.62109375 215.87890625 C-79.4137413 216.67357803 -80.20638885 217.46824982 -81.02305603 218.28700256 C-81.75464432 219.01543869 -82.4862326 219.74387482 -83.23999023 220.49438477 C-83.88346909 221.13706802 -84.52694794 221.77975128 -85.18992615 222.44190979 C-88.42336426 225.42229701 -91.38903221 225.2818057 -95.6171875 225.20703125 C-97.8125 224.9375 -97.8125 224.9375 -100.3125 223.4375 C-102.33019055 220.07468242 -103.37213113 216.86890871 -102.8125 212.9375 C-99.39520783 206.88447485 -94.45283651 202.35878993 -89.5234375 197.5234375 C-88.6238028 196.63137604 -87.72416809 195.73931458 -86.79727173 194.82022095 C-83.93212029 191.97943975 -81.06082386 189.1450079 -78.1875 186.3125 C-74.39764014 182.57633206 -70.61495792 178.83307782 -66.8359375 175.0859375 C-65.96198334 174.22858002 -65.08802917 173.37122253 -64.18759155 172.48788452 C-63.37980255 171.68670197 -62.57201355 170.88551941 -61.73974609 170.06005859 C-61.02789154 169.35867767 -60.31603699 168.65729675 -59.58261108 167.93466187 C-55.77326694 163.6366961 -55.37272787 159.99883667 -55.49609375 154.40625 C-56.12424943 149.50508473 -58.83659927 146.8181909 -62.375 143.625 C-66.51814191 140.75667099 -69.86330958 140.60196167 -74.8125 140.9375 C-80.41557916 143.13899351 -84.18397297 146.76054604 -88.4375 150.875 C-89.16388672 151.56940186 -89.89027344 152.26380371 -90.63867188 152.97924805 C-93.041154 155.28739054 -95.42872003 157.61005197 -97.8125 159.9375 C-99.09785645 161.18998535 -99.09785645 161.18998535 -100.40917969 162.46777344 C-114.34117978 176.04534798 -114.34117978 176.04534798 -126.8125 190.9375 C-127.56402344 191.86046875 -128.31554687 192.7834375 -129.08984375 193.734375 C-142.60115568 210.73030149 -146.31011951 228.19553335 -146.10546875 249.48828125 C-146.10104507 251.04373857 -146.09799246 252.59920039 -146.09631348 254.15466309 C-146.08073341 259.85317786 -146.03885041 265.55159636 -146 271.25 C-145.938125 284.016875 -145.87625 296.78375 -145.8125 309.9375 C-119.0825 309.9375 -92.3525 309.9375 -64.8125 309.9375 C-64.4825 303.0075 -64.1525 296.0775 -63.8125 288.9375 C-59.64961477 262.00118379 -38.57276647 242.73868264 -18.79760742 225.68017578 C-4.81860269 213.40835979 8.03074058 201.18871463 10.07858276 181.79766846 C10.31822273 175.50471882 9.37827926 169.23503891 8.66015625 162.9921875 C8.47743848 161.34146339 8.29550493 159.69065232 8.11427307 158.0397644 C7.5987245 153.37084965 7.06966137 148.70354232 6.5386734 144.03636169 C6.04454386 139.67601121 5.55876239 135.31474058 5.07233238 130.95352554 C3.71322877 118.77514679 2.33069581 106.59957985 0.92981529 94.42593765 C0.19651775 88.05302779 -0.53256985 81.67970039 -1.25170898 75.30517578 C-1.96049306 69.0228018 -2.67925397 62.74164563 -3.40525627 56.46123886 C-3.67703443 54.09582924 -3.9453516 51.73001912 -4.21002388 49.36380386 C-4.57776508 46.08265773 -4.95835038 42.80323969 -5.34204102 39.52392578 C-5.44653061 38.56510498 -5.5510202 37.60628418 -5.65867615 36.6184082 C-6.47108709 29.8427475 -7.47186161 22.13523242 -13 17.5 C-20.24870272 11.90290043 -27.19172062 13.39901106 -33.5625 19.625 Z M-166.8125 333.9375 C-167.13496184 336.62968141 -167.28051723 339.08657256 -167.28125 341.78125 C-167.28886353 342.54675171 -167.29647705 343.31225342 -167.30432129 344.10095215 C-167.31511852 345.71814717 -167.31797689 347.33541191 -167.31347656 348.95263672 C-167.31250325 351.4292385 -167.35414135 353.90275128 -167.3984375 356.37890625 C-167.40364389 357.95051437 -167.4063327 359.52213326 -167.40625 361.09375 C-167.42264526 361.83443726 -167.43904053 362.57512451 -167.45593262 363.33825684 C-167.4800551 365.68114848 -167.4800551 365.68114848 -166.8125 368.9375 C-162.28231296 373.06630723 -156.71339928 372.35963021 -150.95117188 372.32568359 C-149.30889366 372.33356903 -149.30889366 372.33356903 -147.63343811 372.34161377 C-144.01589678 372.35481295 -140.39879578 372.34607561 -136.78125 372.3359375 C-134.26688553 372.33795825 -131.75252164 372.34086969 -129.23815918 372.34463501 C-123.96911123 372.34905826 -118.70017771 372.34291351 -113.43115234 372.32861328 C-107.34566168 372.31228754 -101.26047258 372.31757639 -95.17498922 372.3340925 C-89.31287796 372.34936356 -83.45088101 372.34772596 -77.58876038 372.3389473 C-75.09766091 372.33694525 -72.60655375 372.33940472 -70.11546326 372.34638596 C-66.63471046 372.35399981 -63.15453769 372.3423963 -59.67382812 372.32568359 C-58.64302628 372.33175629 -57.61222443 372.33782898 -56.55018616 372.34408569 C-49.65466528 372.34518534 -49.65466528 372.34518534 -43.8125 368.9375 C-42.11724494 363.85173483 -42.62657596 358.43623355 -42.62719727 353.11352539 C-42.62501146 351.01102435 -42.60684455 348.90904883 -42.58789062 346.80664062 C-42.58495624 345.46614762 -42.58297175 344.12565213 -42.58203125 342.78515625 C-42.57792236 341.56836182 -42.57381348 340.35156738 -42.56958008 339.09790039 C-42.80102712 336.08676276 -43.13145283 334.41158459 -44.8125 331.9375 C-47.23308048 330.72720976 -48.76962207 330.80644648 -51.47459412 330.79705811 C-52.45746399 330.79134796 -53.44033386 330.78563782 -54.45298767 330.77975464 C-55.53512039 330.77863678 -56.61725311 330.77751892 -57.73217773 330.77636719 C-59.43713913 330.76891983 -59.43713913 330.76891983 -61.17654419 330.76132202 C-64.94973345 330.74667466 -68.72288069 330.73989467 -72.49609375 330.734375 C-75.10921735 330.7286264 -77.72234092 330.72286863 -80.33546448 330.71710205 C-85.11756871 330.70752857 -89.89966382 330.70163283 -94.68177646 330.6986053 C-101.72494391 330.694122 -108.76791754 330.67656158 -115.81102604 330.6476047 C-121.90751237 330.62340775 -128.00391849 330.61566221 -134.10045052 330.61392975 C-136.69648355 330.61089449 -139.29251559 330.60283683 -141.88851738 330.58974457 C-145.5136386 330.572765 -149.13828332 330.57454451 -152.76342773 330.58105469 C-154.38359047 330.56723251 -154.38359047 330.56723251 -156.03648376 330.5531311 C-157.02217346 330.55870026 -158.00786316 330.56426941 -159.02342224 330.57000732 C-159.88085746 330.56854076 -160.73829268 330.5670742 -161.62171078 330.5655632 C-164.33232144 331.02575163 -165.21258482 331.7257212 -166.8125 333.9375 Z " fill="#0063ff" transform="translate(469.8125,120.0625)"/>
<path d="M0 0 C8.55459455 6.60927009 13.01735381 14.85463765 14.75389099 25.44923401 C15.3055637 29.81468174 15.55083638 34.12972155 15.73071289 38.52319336 C15.7698732 39.41179047 15.80903351 40.30038757 15.84938049 41.21591187 C15.97708463 44.13209054 16.09990264 47.04845285 16.22265625 49.96484375 C16.31060588 51.99509469 16.39886206 54.02533238 16.4874115 56.05555725 C16.71897144 61.3835081 16.94637965 66.71162828 17.1729126 72.03979492 C17.40507696 77.48301893 17.64118275 82.92607183 17.87695312 88.36914062 C18.33848478 99.03759698 18.79562889 109.70623645 19.25 120.375 C20.78285645 120.35759766 20.78285645 120.35759766 22.34667969 120.33984375 C23.70507629 120.33045932 25.06347488 120.32135982 26.421875 120.3125 C27.42903564 120.29993164 27.42903564 120.29993164 28.45654297 120.28710938 C43.78089217 120.21226518 53.2903297 129.19261432 63.6640625 139.42578125 C65.96442342 141.71803706 68.25515991 144.01922638 70.5390625 146.32788086 C72.86820493 148.68063604 75.21040454 151.01976257 77.5546875 153.35742188 C85.23291022 161.05023897 92.6283079 168.73964325 99.25 177.375 C100.10501684 178.4443719 100.96040341 179.51344845 101.81640625 180.58203125 C117.89780016 201.57281352 123.49037927 221.93489202 123.6640625 248.16796875 C123.68280526 249.96829586 123.7023809 251.76861448 123.7227478 253.56892395 C123.77374704 258.27217565 123.81354365 262.97545574 123.85089111 267.67883301 C123.89113441 272.4923384 123.94213329 277.30572903 123.9921875 282.11914062 C124.08856464 291.53767942 124.17308984 300.95628351 124.25 310.375 C124.8677832 310.64344727 125.48556641 310.91189453 126.12207031 311.18847656 C126.93256836 311.54393555 127.74306641 311.89939453 128.578125 312.265625 C129.3815332 312.61657227 130.18494141 312.96751953 131.01269531 313.32910156 C137.08943185 316.16986317 140.17361656 320.61269718 143.25 326.375 C144.15779577 329.0983873 144.39435832 330.78625225 144.44287109 333.59594727 C144.45893402 334.44435684 144.47499695 335.29276642 144.49154663 336.16688538 C144.53631234 340.06152348 144.57710094 343.95599409 144.60009766 347.85083008 C144.61659905 349.89619369 144.64381145 351.94150103 144.68212891 353.98657227 C144.73733212 356.95098485 144.75884206 359.91404653 144.7734375 362.87890625 C144.79610687 363.78032852 144.81877625 364.68175079 144.84213257 365.61048889 C144.81751122 373.13048379 142.63700501 379.66753262 137.49423218 385.29689026 C130.07734462 392.23913559 122.72746737 392.81989588 112.95581055 392.79492188 C111.73214783 392.80339142 110.50848511 392.81186096 109.2477417 392.82058716 C105.90650164 392.83992102 102.56582125 392.84573821 99.22456336 392.84383965 C96.4266531 392.84371951 93.62879441 392.85230127 90.83089858 392.86061716 C84.22422581 392.87982089 77.61767936 392.88274656 71.01098633 392.87597656 C64.21652795 392.86934166 57.42261325 392.89218428 50.62826508 392.92929029 C44.77660443 392.96007744 38.92511784 392.97133751 33.07337791 392.96745348 C29.58649378 392.9653948 26.10003269 392.97072675 22.61322594 392.99534607 C18.71939539 393.02193316 14.82626594 393.00781669 10.93237305 392.99023438 C9.79177933 393.00349762 8.65118561 393.01676086 7.47602844 393.03042603 C-1.94647697 392.93192554 -8.96235333 390.39698334 -15.6875 383.6875 C-22.87888928 375.71866323 -22.22338769 364.26855332 -22.14111328 354.21630859 C-22.12502952 351.87928911 -22.14102892 349.54399836 -22.16015625 347.20703125 C-22.17743738 335.55110127 -21.35709918 325.03986495 -12.75 316.375 C-8.94059316 313.42436117 -5.43476549 311.47955305 -0.75 310.375 C-0.18965544 290.16108895 -3.25101974 277.97793222 -17.48364258 262.79663086 C-18.89737238 261.31437414 -20.32109886 259.84262743 -21.75 258.375 C-23.06097656 257.02148438 -23.06097656 257.02148438 -24.3984375 255.640625 C-28.57499193 251.39981589 -32.84780118 247.35604399 -37.35546875 243.47265625 C-53.90726495 228.97295876 -72.21787176 212.3418825 -73.92928505 188.92151833 C-74.55183247 171.19271473 -72.70937891 153.73379778 -70.61792922 136.1671865 C-70.16942486 132.37702256 -69.73627206 128.585097 -69.30085754 124.79341125 C-68.56994312 118.44810405 -67.82808681 112.10415564 -67.07885742 105.76098633 C-66.21686914 98.46236896 -65.37065879 91.16205593 -64.53309363 83.86059827 C-63.71958862 76.77061952 -62.89694778 69.68173221 -62.06954384 62.59336281 C-61.72054494 59.60315627 -61.37430552 56.61265024 -61.03032494 53.62186241 C-60.62492404 50.10192306 -60.21134435 46.58303255 -59.79174614 43.0647583 C-59.56886089 41.18092936 -59.35358051 39.29620535 -59.13864136 37.41145325 C-57.52850402 24.06697624 -55.47232216 11.51785235 -45.19921875 2.015625 C-31.31356946 -8.74722622 -14.69882284 -9.9713636 0 0 Z M-32.5 20.1875 C-35.84524616 24.92659873 -36.93295545 29.54381919 -37.59120178 35.24806213 C-37.72713242 36.3986763 -37.86306305 37.54929047 -38.00311279 38.73477173 C-38.14396301 39.98317841 -38.28481323 41.23158508 -38.42993164 42.51782227 C-38.5856925 43.85726666 -38.74201333 45.19664605 -38.89884949 46.53596497 C-39.3220043 50.16380627 -39.73715302 53.79252307 -40.15072179 57.42146802 C-40.58633474 61.2328911 -41.02889161 65.04350824 -41.4705658 68.85423279 C-42.21200858 75.26015688 -42.94857075 81.66662686 -43.68188477 88.07348633 C-44.52639756 95.45163743 -45.37700732 102.82906403 -46.23130137 110.2060886 C-47.14430989 118.09026152 -48.05348998 125.97487215 -48.96120524 133.8596561 C-49.22110525 136.11544447 -49.48162866 138.37116016 -49.7422657 140.62686348 C-50.15426303 144.19462343 -50.56361854 147.76267776 -50.97105598 151.33096123 C-51.18991481 153.2430001 -51.41111202 155.15477088 -51.63241577 157.06652832 C-54.71116353 183.31437712 -54.71116353 183.31437712 -43.8828125 206.82421875 C-41.59142697 209.43985695 -39.20219048 211.90891609 -36.75 214.375 C-35.53893122 215.61185064 -34.32800391 216.8488398 -33.1171875 218.0859375 C-25.65820637 225.65862368 -25.65820637 225.65862368 -17.8125 232.82421875 C-6.36395445 242.73094734 4.48840668 253.29267642 12.25 266.375 C12.75789063 267.22191406 13.26578125 268.06882812 13.7890625 268.94140625 C20.96816014 282.01911921 20.53932768 295.45088135 21.25 310.375 C47.98 310.375 74.71 310.375 102.25 310.375 C102.3325 297.67 102.415 284.965 102.5 271.875 C102.53641602 267.89630859 102.57283203 263.91761719 102.61035156 259.81835938 C102.62374748 256.18219678 102.62374748 256.18219678 102.6317749 252.54602051 C102.63782833 250.95417782 102.65170631 249.36235084 102.67230225 247.77062988 C103.0827851 214.30925731 86.66732507 193.35491225 64.25 170.375 C60.95123252 167.0070464 57.63775325 163.65430164 54.3125 160.3125 C53.53197266 159.52721924 52.75144531 158.74193848 51.94726562 157.93286133 C41.48263432 146.5866311 41.48263432 146.5866311 27.75 141 C22.34740342 141.57884963 18.93642565 143.33703986 15.4375 147.4375 C12.76238379 151.02979891 12.0640669 152.7284657 11.9375 157.125 C11.90011719 157.96546875 11.86273438 158.8059375 11.82421875 159.671875 C13.01558229 167.235394 20.35874231 172.70757614 25.5390625 177.7890625 C26.4386972 178.68112396 27.33833191 179.57318542 28.26522827 180.49227905 C31.13037971 183.33306025 34.00167614 186.1674921 36.875 189 C40.66485986 192.73616794 44.44754208 196.47942218 48.2265625 200.2265625 C49.10051666 201.08391998 49.97447083 201.94127747 50.87490845 202.82461548 C51.68269745 203.62579803 52.49048645 204.42698059 53.32275391 205.25244141 C54.03460846 205.95382233 54.74646301 206.65520325 55.47988892 207.37783813 C58.0620096 210.29116545 59.150509 212.43978457 59.5625 216.3125 C59.2086265 219.78046033 58.31487992 221.59535395 56.25 224.375 C52.65956405 226.17021798 49.15309579 226.06262432 45.25 225.375 C43.34513855 224.10652161 43.34513855 224.10652161 41.51635742 222.39770508 C40.82633636 221.75950836 40.13631531 221.12131165 39.42538452 220.46377563 C38.70750763 219.77447968 37.98963074 219.08518372 37.25 218.375 C36.17306381 217.35084488 36.17306381 217.35084488 35.07437134 216.30599976 C30.08069908 211.50516605 25.17325405 206.6150865 20.25854492 201.73364258 C18.46114851 199.95284803 16.65839764 198.17744165 14.8503418 196.4074707 C12.2172874 193.82941608 9.6012801 191.23508071 6.98828125 188.63671875 C5.78501945 187.46746101 5.78501945 187.46746101 4.55744934 186.27458191 C-4.54202128 177.14074411 -7.99749829 168.38009263 -8.07568359 155.66918945 C-7.9608163 148.10766389 -5.95496858 141.68245286 -1.75 135.375 C-1.47509885 132.64438357 -1.47509885 132.64438357 -1.5769043 129.48144531 C-1.59530365 128.22223267 -1.613703 126.96302002 -1.63265991 125.66564941 C-1.8447779 117.33112491 -2.16885589 109.00156297 -2.51953125 100.671875 C-2.58010995 99.22045986 -2.58010995 99.22045986 -2.64191246 97.73972321 C-2.8556746 92.63165897 -3.07340467 87.5237809 -3.29418945 82.41601562 C-3.52008696 77.16927833 -3.73113158 71.92204997 -3.93900013 66.67457199 C-4.10294408 62.60766727 -4.27828495 58.54130955 -4.45664024 54.47501373 C-4.53946587 52.54086441 -4.61800995 50.60652643 -4.69202614 48.67201996 C-4.59018071 31.99389078 -4.59018071 31.99389078 -11.9375 17.8125 C-19.25479497 12.37855943 -26.26733427 13.81318278 -32.5 20.1875 Z M0.25 333.375 C-1.48630594 338.58391781 -0.97546293 344.17247852 -0.99023438 349.6262207 C-0.99995011 351.80133156 -1.03099056 353.975501 -1.0625 356.15039062 C-1.06902967 357.53645274 -1.07428028 358.92252159 -1.078125 360.30859375 C-1.0874707 361.56728271 -1.09681641 362.82597168 -1.10644531 364.12280273 C-0.72609982 367.59306459 -0.22793013 368.96565932 2.25 371.375 C5.11013209 372.32837736 6.89888774 372.50472734 9.86703491 372.51544189 C11.28858131 372.52400711 11.28858131 372.52400711 12.73884583 372.53274536 C13.77683823 372.53386322 14.81483063 372.53498108 15.88427734 372.53613281 C17.52611748 372.54358017 17.52611748 372.54358017 19.2011261 372.55117798 C22.82940291 372.56580755 26.45763602 372.5726026 30.0859375 372.578125 C32.6031596 372.58387535 35.12038169 372.5896331 37.63760376 372.59539795 C42.24333448 372.60456583 46.84905262 372.61086553 51.45479143 372.6138947 C58.23021983 372.6183756 65.00544651 372.63592678 71.78081357 372.6648953 C77.65250378 372.68912734 83.52412673 372.69683951 89.39586258 372.69857025 C91.89255497 372.70160065 94.38924643 372.70964214 96.88590622 372.72275543 C100.37640484 372.73978142 103.86641047 372.73794395 107.35693359 372.73144531 C108.39087753 372.7406601 109.42482147 372.74987488 110.49009705 372.7593689 C117.41639491 372.8083253 117.41639491 372.8083253 123.25 369.375 C123.74431893 366.55816671 123.90606347 364.34637975 123.84375 361.53125 C123.84379028 360.76574829 123.84383057 360.00024658 123.84387207 359.21154785 C123.83851428 357.59423608 123.82091995 355.9769252 123.79199219 354.35986328 C123.75014586 351.88363133 123.75092096 349.41011948 123.7578125 346.93359375 C123.74731946 345.36196026 123.73438072 343.79034079 123.71875 342.21875 C123.71854858 341.47806274 123.71834717 340.73737549 123.71813965 339.97424316 C123.67865598 336.08699408 123.67865598 336.08699408 122.02265167 332.67927265 C119.70795347 330.97617576 118.32830112 331.00021771 115.46765137 331.0007782 C113.99128456 330.99025673 113.99128456 330.99025673 112.48509216 330.97952271 C111.40655472 330.98716644 110.32801727 330.99481018 109.21679688 331.00268555 C108.08000992 330.99903488 106.94322296 330.99538422 105.77198792 330.99162292 C102.00409126 330.98349894 98.23662216 330.99714335 94.46875 331.01171875 C91.85705567 331.01223713 89.24536094 331.01172028 86.63366699 331.01020813 C81.15595366 331.00932509 75.67836406 331.02040748 70.20068359 331.03881836 C63.86644649 331.05998621 57.53239067 331.06349595 51.19812536 331.0572564 C45.10642651 331.05156286 39.0148018 331.05731254 32.92311096 331.06842995 C30.32988238 331.07228715 27.73664833 331.07342802 25.14341736 331.0718441 C21.52323924 331.07147445 17.90333954 331.08406586 14.28320312 331.1003418 C13.20466568 331.09786438 12.12612823 331.09538696 11.01490784 331.09283447 C9.53854103 331.10346169 9.53854103 331.10346169 8.03234863 331.11430359 C6.74814404 331.11738289 6.74814404 331.11738289 5.43799591 331.12052441 C2.95856407 331.24077903 2.95856407 331.24077903 0.25 333.375 Z " fill="#0063ff" transform="translate(85.75,119.625)"/>
<path d="M0 0 C16.22086342 12.05221495 26.96527003 27.86505997 31.1015625 47.73828125 C33.8314654 67.47757916 29.55183916 83.92713643 20.609375 101.41015625 C21.33769531 101.6628125 22.06601562 101.91546875 22.81640625 102.17578125 C35.82668663 107.92577929 45.03426917 123.7802495 50.4296875 136.30859375 C54.67885894 147.48025642 55.76431978 158.17246419 55.8125 170.03125 C55.81820007 171.13058365 55.82390015 172.2299173 55.82977295 173.36256409 C55.83918024 175.67797902 55.84573984 177.99340708 55.84960938 180.30883789 C55.85933479 183.83308335 55.89040754 187.35674995 55.921875 190.88085938 C55.9284044 193.13931948 55.93365512 195.39778373 55.9375 197.65625 C55.9498468 198.70026474 55.9621936 199.74427948 55.97491455 200.81993103 C55.94826517 209.65147181 54.5933028 217.03348979 48.484375 223.72265625 C47.42863281 224.92341797 47.42863281 224.92341797 46.3515625 226.1484375 C37.91579224 233.10614545 29.31772772 233.06947099 18.82421875 232.98657227 C16.35021951 232.97260456 13.8799369 233.00697438 11.40625 233.04492188 C9.82291575 233.04587236 8.23957678 233.04401803 6.65625 233.0390625 C5.92283386 233.05232071 5.18941772 233.06557892 4.43377686 233.07923889 C0.52570392 233.00838849 -1.23047629 232.5367567 -4.33105469 230.08569336 C-6.92824167 226.71175167 -7.390625 224.65443478 -7.390625 220.41015625 C-6.12585833 216.54145821 -5.18257792 214.89471347 -1.69604492 212.76147461 C1.94049817 211.27478682 4.52001877 211.04149951 8.43359375 211.0390625 C9.70912109 211.02166016 10.98464844 211.00425781 12.29882812 210.98632812 C14.30671422 210.97946188 16.31461264 210.97267121 18.32250977 210.97436523 C20.27630458 210.97080122 22.2300067 210.94277716 24.18359375 210.9140625 C25.34463623 210.91220947 26.50567871 210.91035645 27.7019043 210.90844727 C30.66636082 210.69894758 30.66636082 210.69894758 32.26683044 208.66415405 C33.77641909 206.12970595 33.98869275 204.77072973 33.99755859 201.84790039 C34.01174332 200.49983055 34.01174332 200.49983055 34.0262146 199.12452698 C34.02014191 198.1578862 34.01406921 197.19124542 34.0078125 196.1953125 C34.01068268 195.18858994 34.01355286 194.18186737 34.01651001 193.14463806 C34.01855162 191.01040079 34.01301501 188.87614485 34.00048828 186.74194336 C33.98458701 183.51567214 34.00025542 180.29068275 34.01953125 177.06445312 C34.04037852 157.70099736 31.93128992 141.34545019 18 126.6796875 C14.42343406 123.28428748 10.62044551 120.27385198 6.609375 117.41015625 C5.95453125 117.84585938 5.2996875 118.2815625 4.625 118.73046875 C-15.65673821 131.96516233 -35.12549973 137.23638682 -59.0703125 132.4453125 C-70.24989227 129.94468237 -79.50927613 124.55148575 -88.390625 117.41015625 C-92.73307604 119.74839912 -95.95050692 121.84262639 -99.390625 125.41015625 C-100.050625 125.41015625 -100.710625 125.41015625 -101.390625 125.41015625 C-101.65101563 125.97476563 -101.91140625 126.539375 -102.1796875 127.12109375 C-103.5049762 129.62631691 -105.07152361 131.7640247 -106.765625 134.03515625 C-114.62432338 145.17784293 -116.70409466 157.10805421 -116.69140625 170.52734375 C-116.69569138 171.54692169 -116.6999765 172.56649963 -116.70439148 173.61697388 C-116.71009386 175.75310528 -116.71066555 177.88925608 -116.70629883 180.02539062 C-116.70311327 183.29720612 -116.72673719 186.56813802 -116.75195312 189.83984375 C-116.75422394 191.92317595 -116.75493063 194.00651057 -116.75390625 196.08984375 C-116.763116 197.06589569 -116.77232574 198.04194763 -116.78181458 199.0475769 C-116.77247139 200.41017136 -116.77247139 200.41017136 -116.76293945 201.80029297 C-116.76356888 202.59619843 -116.7641983 203.39210388 -116.7648468 204.21212769 C-116.29085471 206.99616688 -115.32581775 208.37627024 -113.390625 210.41015625 C-110.39683785 211.006715 -110.39683785 211.006715 -106.96484375 210.9140625 C-105.69318359 210.93275391 -104.42152344 210.95144531 -103.11132812 210.97070312 C-101.76692916 210.97315551 -100.42252572 210.97379049 -99.078125 210.97265625 C-96.45695311 210.98161971 -93.83578705 211.0033043 -91.21484375 211.0390625 C-89.46820435 211.04015015 -89.46820435 211.04015015 -87.6862793 211.04125977 C-83.94995716 211.45948206 -81.57305875 212.42894512 -78.390625 214.41015625 C-75.95290774 218.37144679 -75.26308686 220.46956246 -75.890625 225.09765625 C-77.62153623 228.92008521 -78.86381637 230.1814608 -82.390625 232.41015625 C-85.12717333 232.81321376 -87.45223656 232.99568598 -90.18359375 232.9765625 C-90.92966385 232.98276108 -91.67573395 232.98895966 -92.44441223 232.99534607 C-94.02030133 233.00242999 -95.59626548 232.99929505 -97.17211914 232.98657227 C-99.55434362 232.9727938 -101.9325654 233.00668339 -104.31445312 233.04492188 C-114.54669857 233.09818303 -121.85024252 231.93493956 -130.01171875 225.26953125 C-130.61113281 224.5734375 -131.21054688 223.87734375 -131.828125 223.16015625 C-132.44558594 222.474375 -133.06304687 221.78859375 -133.69921875 221.08203125 C-138.36042943 213.71882546 -138.83866815 206.211076 -138.7890625 197.68359375 C-138.79193268 196.57770905 -138.79480286 195.47182434 -138.79776001 194.33242798 C-138.79979265 192.00107306 -138.7943191 189.66970077 -138.78173828 187.33837891 C-138.76576638 183.81633164 -138.7815676 180.29544803 -138.80078125 176.7734375 C-138.82469449 151.76450214 -134.55195766 129.59335079 -116.73828125 110.6796875 C-107.14966114 101.41015625 -107.14966114 101.41015625 -103.390625 101.41015625 C-104.07898438 100.064375 -104.07898438 100.064375 -104.78125 98.69140625 C-114.17326315 79.83062691 -118.03932845 59.93178602 -111.76953125 39.3203125 C-107.45317074 26.54478529 -101.08065117 16.71543138 -91.390625 7.41015625 C-90.6996875 6.72308594 -90.00875 6.03601563 -89.296875 5.328125 C-65.59883447 -16.96163033 -26.31720704 -17.50180272 0 0 Z M-81.390625 26.97265625 C-90.16800741 37.67009106 -94.20771736 50.91550512 -93.76953125 64.640625 C-92.403267 78.23284152 -86.51536215 91.4573828 -75.98046875 100.47265625 C-64.35584578 108.96428068 -52.08242613 114.63447301 -37.390625 113.41015625 C-36.606875 113.3534375 -35.823125 113.29671875 -35.015625 113.23828125 C-28.80716365 112.46222358 -23.63051582 110.35090789 -18.078125 107.59765625 C-17.40845703 107.26636719 -16.73878906 106.93507813 -16.04882812 106.59375 C-3.59098149 100.13504586 4.06629371 89.40066528 8.734375 76.3203125 C13.08121029 61.86320404 10.56819201 48.0586265 3.984375 34.72265625 C-2.76148173 23.13664731 -13.45292625 15.20248535 -25.890625 10.47265625 C-46.60043282 5.11089371 -66.85383524 11.60519279 -81.390625 26.97265625 Z " fill="#0063ff" transform="translate(297.390625,11.58984375)"/>
<path d="M0 0 C2.9226288 2.28727472 4.60250891 3.96652315 5.9375 7.4375 C6.04932848 12.02246784 4.92870242 14.96203847 1.875 18.375 C-1.82855993 20.46831648 -4.8977641 20.88761829 -9 20 C-13.37758112 17.65486726 -13.37758112 17.65486726 -15 15 C-15.79572943 11.50794997 -15.78029102 8.49409729 -15 5 C-10.6427052 -0.7704715 -6.91725867 -1.66968313 0 0 Z " fill="#0063ff" transform="translate(261,224)"/>
</svg>
